<svg id="Layer_1" data-name="Layer 1" xmlns="http://www.w3.org/2000/svg" width="183.97" height="126.04" viewBox="0 0 183.97 126.04">
  <path d="M183.53,55.87A62.47,62.47,0,0,0,162,15.31C151.52,6.2,139.48.37,125.19.35H97.45V0C90.21,0,83-.07,75.74.07,70,.19,64.18.05,58.57,1A57.34,57.34,0,0,0,26.1,18.24C7.9,37.47,2.76,59.8,11.37,84.92c1.62,4.71,4.58,9,6.86,13.45a2.88,2.88,0,0,1,.33,2.14c-3.5,7.23-8.18,13.52-15,18A16.89,16.89,0,0,0,.9,120.72a2.62,2.62,0,0,0,1.23,4.56,13.9,13.9,0,0,0,2.72.44c11.2.87,21.78-.81,31.09-7.6a2.94,2.94,0,0,1,3.58-.18c8.87,4.78,18.24,7.81,28.42,7.86,16.88.08,33.77.13,50.66.24a66.82,66.82,0,0,0,30.77-6.91C172.27,107.69,186.73,81.15,183.53,55.87ZM55.82,76A13,13,0,1,1,69.1,63C69.15,70,63.1,76,55.82,76Zm40.49.92c-7.52-.06-13-5.81-13-13.54a13,13,0,0,1,26.09.58A13.1,13.1,0,0,1,96.31,76.94Zm41.32.81A13.48,13.48,0,0,1,123.7,64.57c-.07-6.85,6.09-13.24,12.79-13.27,7.08,0,13.44,6,13.51,12.91C150.08,71.42,144.35,77.68,137.63,77.75Z"/>
</svg>
